REM DIRINDEX 1\2\6,1\2\4\7,1\2\4\8,1\2\5\9,1\3\12,1\3\10\13,1\3\10\14,1\3\10\15,1\3\11\16,1\3\11\17
REM DIRNAME folder01,folder02,folder03,folder04,folder05,folder06,folder07,folder08,folder09,folder10,folder11,folder12,folder13,folder14,folder15,folder16,folder17
TITLE ""
FILE "094.mp3" MP3
  TRACK 01 AUDIO
    TITLE "12:cjc048_08727"
    INDEX 01 00:00:00
  TRACK 02 AUDIO
    TITLE "16:cjc048_08728"
    INDEX 01 00:01:73
  TRACK 03 AUDIO
    TITLE "17:cjc048_08729"
    INDEX 01 00:03:10
  TRACK 04 AUDIO
    TITLE "16:cjc048_08730"
    INDEX 01 00:05:16
  TRACK 05 AUDIO
    TITLE "17:cjc048_08731"
    INDEX 01 00:06:08
  TRACK 06 AUDIO
    TITLE "16:cjc048_08732"
    INDEX 01 00:08:09
  TRACK 07 AUDIO
    TITLE "17:cjc048_08733"
    INDEX 01 00:09:30
  TRACK 08 AUDIO
    TITLE "16:cjc048_08734"
    INDEX 01 00:10:55
  TRACK 09 AUDIO
    TITLE "17:cjc048_08735"
    INDEX 01 00:12:18
  TRACK 10 AUDIO
    TITLE "16:cjc048_08736"
    INDEX 01 00:13:45
  TRACK 11 AUDIO
    TITLE "17:cjc048_08737"
    INDEX 01 00:14:35
  TRACK 12 AUDIO
    TITLE "16:cjc048_08738"
    INDEX 01 00:16:36
  TRACK 13 AUDIO
    TITLE "17:cjc048_08739"
    INDEX 01 00:17:43
  TRACK 14 AUDIO
    TITLE "16:cjc048_08740"
    INDEX 01 00:19:58
  TRACK 15 AUDIO
    TITLE "17:cjc048_08741"
    INDEX 01 00:20:57
  TRACK 16 AUDIO
    TITLE "16:cjc048_08742"
    INDEX 01 00:23:32
  TRACK 17 AUDIO
    TITLE "17:cjc048_08743"
    INDEX 01 00:24:41
  TRACK 18 AUDIO
    TITLE "16:cjc048_08744"
    INDEX 01 00:25:70
  TRACK 19 AUDIO
    TITLE "17:cjc048_08745"
    INDEX 01 00:26:71
  TRACK 20 AUDIO
    TITLE "16:cjc048_08746"
    INDEX 01 00:28:43
  TRACK 21 AUDIO
    TITLE "17:cjc048_08747"
    INDEX 01 00:29:74
  TRACK 22 AUDIO
    TITLE "16:cjc048_08748"
    INDEX 01 00:32:64
  TRACK 23 AUDIO
    TITLE "17:cjc048_08749"
    INDEX 01 00:33:62
  TRACK 24 AUDIO
    TITLE "16:cjc048_08750"
    INDEX 01 00:35:15
  TRACK 25 AUDIO
    TITLE "17:cjc048_08751"
    INDEX 01 00:36:03
  TRACK 26 AUDIO
    TITLE "16:cjc048_08752"
    INDEX 01 00:37:67
  TRACK 27 AUDIO
    TITLE "17:cjc048_08753"
    INDEX 01 00:38:47
  TRACK 28 AUDIO
    TITLE "16:cjc048_08754"
    INDEX 01 00:39:66
  TRACK 29 AUDIO
    TITLE "17:cjc048_08755"
    INDEX 01 00:40:64
  TRACK 30 AUDIO
    TITLE "16:cjc048_08756"
    INDEX 01 00:44:38
  TRACK 31 AUDIO
    TITLE "17:cjc048_08757"
    INDEX 01 00:45:22
  TRACK 32 AUDIO
    TITLE "16:cjc048_08758"
    INDEX 01 00:47:52
  TRACK 33 AUDIO
    TITLE "17:cjc048_08759"
    INDEX 01 00:49:37
  TRACK 34 AUDIO
    TITLE "16:cjc048_08760"
    INDEX 01 00:52:49
  TRACK 35 AUDIO
    TITLE "17:cjc048_08761"
    INDEX 01 00:53:47
  TRACK 36 AUDIO
    TITLE "16:cjc048_08762"
    INDEX 01 00:56:47
  TRACK 37 AUDIO
    TITLE "17:cjc048_08763"
    INDEX 01 00:57:45
  TRACK 38 AUDIO
    TITLE "16:cjc048_08764"
    INDEX 01 01:00:15
  TRACK 39 AUDIO
    TITLE "17:cjc048_08765"
    INDEX 01 01:01:17
  TRACK 40 AUDIO
    TITLE "16:cjc048_08766"
    INDEX 01 01:04:07
  TRACK 41 AUDIO
    TITLE "17:cjc048_08767"
    INDEX 01 01:05:42
  TRACK 42 AUDIO
    TITLE "16:cjc048_08768"
    INDEX 01 01:08:27
  TRACK 43 AUDIO
    TITLE "17:cjc048_08769"
    INDEX 01 01:09:18
  TRACK 44 AUDIO
    TITLE "16:cjc048_08770"
    INDEX 01 01:10:45
  TRACK 45 AUDIO
    TITLE "17:cjc048_08771"
    INDEX 01 01:12:03
  TRACK 46 AUDIO
    TITLE "16:cjc048_08772"
    INDEX 01 01:13:42
  TRACK 47 AUDIO
    TITLE "17:cjc048_08773"
    INDEX 01 01:14:72
  TRACK 48 AUDIO
    TITLE "16:cjc048_08774"
    INDEX 01 01:16:48
  TRACK 49 AUDIO
    TITLE "17:cjc048_08775"
    INDEX 01 01:17:37
  TRACK 50 AUDIO
    TITLE "16:cjc048_08776"
    INDEX 01 01:19:32
  TRACK 51 AUDIO
    TITLE "17:cjc048_08777"
    INDEX 01 01:20:36
  TRACK 52 AUDIO
    TITLE "16:cjc048_08778"
    INDEX 01 01:22:27
  TRACK 53 AUDIO
    TITLE "17:cjc048_08779"
    INDEX 01 01:23:16
  TRACK 54 AUDIO
    TITLE "16:cjc048_08780"
    INDEX 01 01:24:73
  TRACK 55 AUDIO
    TITLE "17:cjc048_08781"
    INDEX 01 01:25:70
  TRACK 56 AUDIO
    TITLE "16:cjc048_08782"
    INDEX 01 01:28:16
  TRACK 57 AUDIO
    TITLE "17:cjc048_08783"
    INDEX 01 01:29:05
  TRACK 58 AUDIO
    TITLE "16:cjc048_08784"
    INDEX 01 01:31:69
  TRACK 59 AUDIO
    TITLE "17:cjc048_08785"
    INDEX 01 01:32:66
  TRACK 60 AUDIO
    TITLE "16:cjc048_08786"
    INDEX 01 01:35:33
  TRACK 61 AUDIO
    TITLE "17:cjc048_08787"
    INDEX 01 01:36:41
  TRACK 62 AUDIO
    TITLE "16:cjc048_08788"
    INDEX 01 01:38:00
  TRACK 63 AUDIO
    TITLE "17:cjc048_08789"
    INDEX 01 01:38:73
  TRACK 64 AUDIO
    TITLE "16:cjc048_08790"
    INDEX 01 01:40:46
  TRACK 65 AUDIO
    TITLE "17:cjc048_08791"
    INDEX 01 01:41:30
  TRACK 66 AUDIO
    TITLE "16:cjc048_08792"
    INDEX 01 01:42:53
  TRACK 67 AUDIO
    TITLE "17:cjc048_08793"
    INDEX 01 01:43:58
  TRACK 68 AUDIO
    TITLE "16:cjc048_08794"
    INDEX 01 01:45:08
  TRACK 69 AUDIO
    TITLE "17:cjc048_08795"
    INDEX 01 01:46:18
  TRACK 70 AUDIO
    TITLE "16:cjc048_08796"
    INDEX 01 01:47:29
  TRACK 71 AUDIO
    TITLE "17:cjc048_08797"
    INDEX 01 01:48:28
  TRACK 72 AUDIO
    TITLE "16:cjc048_08798"
    INDEX 01 01:50:15
  TRACK 73 AUDIO
    TITLE "17:cjc048_08799"
    INDEX 01 01:51:13
  TRACK 74 AUDIO
    TITLE "16:cjc048_08800"
    INDEX 01 01:52:20
  TRACK 75 AUDIO
    TITLE "17:cjc048_08801"
    INDEX 01 01:53:14
  TRACK 76 AUDIO
    TITLE "16:cjc048_08802"
    INDEX 01 01:54:29
  TRACK 77 AUDIO
    TITLE "17:cjc048_08803"
    INDEX 01 01:55:15
  TRACK 78 AUDIO
    TITLE "16:cjc048_08804"
    INDEX 01 01:56:45
  TRACK 79 AUDIO
    TITLE "17:cjc048_08805"
    INDEX 01 01:57:31
  TRACK 80 AUDIO
    TITLE "16:cjc048_08806"
    INDEX 01 01:59:59
  TRACK 81 AUDIO
    TITLE "17:cjc048_08807"
    INDEX 01 02:00:59
  TRACK 82 AUDIO
    TITLE "16:cjc048_08808"
    INDEX 01 02:02:66
  TRACK 83 AUDIO
    TITLE "17:cjc048_08809"
    INDEX 01 02:03:53
  TRACK 84 AUDIO
    TITLE "16:cjc048_08810"
    INDEX 01 02:04:70
  TRACK 85 AUDIO
    TITLE "17:cjc048_08811"
    INDEX 01 02:05:64
  TRACK 86 AUDIO
    TITLE "16:cjc048_08812"
    INDEX 01 02:07:39
  TRACK 87 AUDIO
    TITLE "17:cjc048_08813"
    INDEX 01 02:08:48
  TRACK 88 AUDIO
    TITLE "16:cjc048_08814"
    INDEX 01 02:10:69
  TRACK 89 AUDIO
    TITLE "17:cjc048_08815"
    INDEX 01 02:12:13
  TRACK 90 AUDIO
    TITLE "0:"
    INDEX 01 02:14:06
